<svg width="116" height="19" viewBox="0 0 116 19" fill="none" xmlns="http://www.w3.org/2000/svg">
<path d="M102.85 14.825L106 12.925L109.15 14.85L108.325 11.25L111.1 8.85L107.45 8.525L106 5.125L104.55 8.5L100.9 8.825L103.675 11.25L102.85 14.825ZM99.825 19L101.45 11.975L96 7.25L103.2 6.625L106 0L108.8 6.625L116 7.25L110.55 11.975L112.175 19L106 15.275L99.825 19Z" fill="#1D1B20"/>
<path d="M78.85 14.825L82 12.925L85.15 14.85L84.325 11.25L87.1 8.85L83.45 8.525L82 5.125L80.55 8.5L76.9 8.825L79.675 11.25L78.85 14.825ZM75.825 19L77.45 11.975L72 7.25L79.2 6.625L82 0L84.8 6.625L92 7.25L86.55 11.975L88.175 19L82 15.275L75.825 19Z" fill="#1D1B20"/>
<path d="M54.85 14.825L58 12.925L61.15 14.85L60.325 11.25L63.1 8.85L59.45 8.525L58 5.125L56.55 8.5L52.9 8.825L55.675 11.25L54.85 14.825ZM51.825 19L53.45 11.975L48 7.25L55.2 6.625L58 0L60.8 6.625L68 7.25L62.55 11.975L64.175 19L58 15.275L51.825 19Z" fill="#1D1B20"/>
<path d="M27.825 19L29.45 11.975L24 7.25L31.2 6.625L34 0L36.8 6.625L44 7.25L38.55 11.975L40.175 19L34 15.275L27.825 19Z" fill="#1D1B20"/>
<path d="M3.825 19L5.45 11.975L0 7.25L7.2 6.625L10 0L12.8 6.625L20 7.25L14.55 11.975L16.175 19L10 15.275L3.825 19Z" fill="#1D1B20"/>
</svg>
