<svg width="116" height="20" viewBox="0 0 116 20" fill="none" xmlns="http://www.w3.org/2000/svg">
<path d="M99.825 19L101.45 11.975L96 7.25L103.2 6.625L106 0L108.8 6.625L116 7.25L110.55 11.975L112.175 19L106 15.275L99.825 19Z" fill="#1D1B20"/>
<path d="M75.825 20L77.45 12.975L72 8.25L79.2 7.625L82 1L84.8 7.625L92 8.25L86.55 12.975L88.175 20L82 16.275L75.825 20Z" fill="#1D1B20"/>
<path d="M51.825 19L53.45 11.975L48 7.25L55.2 6.625L58 0L60.8 6.625L68 7.25L62.55 11.975L64.175 19L58 15.275L51.825 19Z" fill="#1D1B20"/>
<path d="M27.825 19L29.45 11.975L24 7.25L31.2 6.625L34 0L36.8 6.625L44 7.25L38.55 11.975L40.175 19L34 15.275L27.825 19Z" fill="#1D1B20"/>
<path d="M3.825 19L5.45 11.975L0 7.25L7.2 6.625L10 0L12.8 6.625L20 7.25L14.55 11.975L16.175 19L10 15.275L3.825 19Z" fill="#1D1B20"/>
</svg>
