<svg width="311" height="16" viewBox="0 0 311 16" fill="none" xmlns="http://www.w3.org/2000/svg">
<path d="M0 8C0 5.79086 1.79086 4 4 4H307C309.209 4 311 5.79086 311 8C311 10.2091 309.209 12 307 12H4C1.79086 12 0 10.2091 0 8Z" fill="#E6E6E6"/>
<path d="M0 8C0 3.58172 3.58172 0 8 0C12.4183 0 16 3.58172 16 8C16 12.4183 12.4183 16 8 16C3.58172 16 0 12.4183 0 8Z" fill="#2C2C2C"/>
<path d="M295 8C295 3.58172 298.582 0 303 0C307.418 0 311 3.58172 311 8C311 12.4183 307.418 16 303 16C298.582 16 295 12.4183 295 8Z" fill="#2C2C2C"/>
</svg>
