<svg width="34" height="33" viewBox="0 0 34 33" fill="none" xmlns="http://www.w3.org/2000/svg">
<path d="M1.5 1.5H7.07794L10.8152 20.4692C10.9427 21.1214 11.2919 21.7073 11.8018 22.1243C12.3117 22.5412 12.9497 22.7627 13.6041 22.75H27.1585C27.8129 22.7627 28.4509 22.5412 28.9608 22.1243C29.4707 21.7073 29.82 21.1214 29.9475 20.4692L32.1787 8.58333H8.47242M14.0504 29.8333C14.0504 30.6157 13.426 31.25 12.6559 31.25C11.8857 31.25 11.2614 30.6157 11.2614 29.8333C11.2614 29.0509 11.8857 28.4167 12.6559 28.4167C13.426 28.4167 14.0504 29.0509 14.0504 29.8333ZM29.3897 29.8333C29.3897 30.6157 28.7654 31.25 27.9952 31.25C27.2251 31.25 26.6007 30.6157 26.6007 29.8333C26.6007 29.0509 27.2251 28.4167 27.9952 28.4167C28.7654 28.4167 29.3897 29.0509 29.3897 29.8333Z" stroke="#1E1E1E" stroke-width="3" stroke-linecap="round" stroke-linejoin="round"/>
</svg>
