<svg width="31" height="30" viewBox="0 0 31 30" fill="none" xmlns="http://www.w3.org/2000/svg">
<path d="M14 4.65165H4.66667C3.95942 4.65165 3.28115 4.91504 2.78105 5.38388C2.28095 5.85272 2 6.48861 2 7.15165V24.6517C2 25.3147 2.28095 25.9506 2.78105 26.4194C3.28115 26.8883 3.95942 27.1517 4.66667 27.1517H23.3333C24.0406 27.1517 24.7189 26.8883 25.219 26.4194C25.719 25.9506 26 25.3147 26 24.6517V15.9017M24 2.77665C24.5304 2.27937 25.2499 2 26 2C26.7501 2 27.4696 2.27937 28 2.77665C28.5304 3.27393 28.8284 3.94839 28.8284 4.65165C28.8284 5.35491 28.5304 6.02937 28 6.52665L15.3333 18.4017L10 19.6517L11.3333 14.6517L24 2.77665Z" stroke="#1E1E1E" stroke-width="4" stroke-linecap="round" stroke-linejoin="round"/>
</svg>
