<svg width="203" height="35" viewBox="0 0 203 35" fill="none" xmlns="http://www.w3.org/2000/svg">
<path d="M179.13 26.5615L184.617 23.1573L190.103 26.6063L188.666 20.1562L193.499 15.8563L187.142 15.274L184.617 9.18229L182.091 15.2292L175.734 15.8115L180.567 20.1562L179.13 26.5615ZM173.862 34.0417L176.692 21.4552L167.2 12.9896L179.74 11.8698L184.617 0L189.493 11.8698L202.033 12.9896L192.541 21.4552L195.371 34.0417L184.617 27.3677L173.862 34.0417Z" fill="#1D1B20"/>
<path d="M137.33 26.5615L142.816 23.1573L148.303 26.6063L146.866 20.1562L151.699 15.8563L145.342 15.274L142.816 9.18229L140.291 15.2292L133.934 15.8115L138.767 20.1562L137.33 26.5615ZM132.062 34.0417L134.892 21.4552L125.4 12.9896L137.94 11.8698L142.816 0L147.693 11.8698L160.233 12.9896L150.741 21.4552L153.571 34.0417L142.816 27.3677L132.062 34.0417Z" fill="#1D1B20"/>
<path d="M95.5303 26.5615L101.017 23.1573L106.503 26.6063L105.066 20.1562L109.899 15.8563L103.542 15.274L101.017 9.18229L98.4911 15.2292L92.134 15.8115L96.9671 20.1562L95.5303 26.5615ZM90.2617 34.0417L93.0919 21.4552L83.5999 12.9896L96.1398 11.8698L101.017 0L105.893 11.8698L118.433 12.9896L108.941 21.4552L111.771 34.0417L101.017 27.3677L90.2617 34.0417Z" fill="#1D1B20"/>
<path d="M53.4785 26.5615L58.9647 23.1573L64.451 26.6063L63.0141 20.1562L67.8472 15.8563L61.4902 15.274L58.9647 9.18229L56.4393 15.2292L50.0823 15.8115L54.9154 20.1562L53.4785 26.5615ZM48.21 34.0417L51.0402 21.4552L41.5481 12.9896L54.0881 11.8698L58.9647 0L63.8414 11.8698L76.3814 12.9896L66.8893 21.4552L69.7195 34.0417L58.9647 27.3677L48.21 34.0417Z" fill="#1D1B20"/>
<path d="M11.9304 26.5615L17.4166 23.1573L22.9029 26.6063L21.466 20.1562L26.2991 15.8563L19.9421 15.274L17.4166 9.18229L14.8912 15.2292L8.53416 15.8115L13.3673 20.1562L11.9304 26.5615ZM6.66187 34.0417L9.49207 21.4552L0 12.9896L12.54 11.8698L17.4166 0L22.2933 11.8698L34.8333 12.9896L25.3412 21.4552L28.1714 34.0417L17.4166 27.3677L6.66187 34.0417Z" fill="#1D1B20"/>
</svg>
