<svg width="169" height="81" viewBox="0 0 169 81" fill="none" xmlns="http://www.w3.org/2000/svg">
<path d="M3.76691 80.7772C2.73101 80.7772 1.84421 80.4083 1.10653 79.6706C0.368843 78.9329 0 78.0462 0 77.0103V50.6419C0 49.606 0.368843 48.7192 1.10653 47.9815C1.84421 47.2438 2.73101 46.875 3.76691 46.875H30.1353C31.1712 46.875 32.0579 47.2438 32.7956 47.9815C33.5333 48.7192 33.9022 49.606 33.9022 50.6419V77.0103C33.9022 78.0462 33.5333 78.9329 32.7956 79.6706C32.0579 80.4083 31.1712 80.7772 30.1353 80.7772H3.76691ZM5.65036 73.2433H28.2518L21.1888 63.8261L15.5385 71.3599L11.3007 65.7095L5.65036 73.2433Z" fill="#1D1B20"/>
<path d="M47.7669 80.9022C46.731 80.9022 45.8442 80.5333 45.1065 79.7956C44.3688 79.0579 44 78.1712 44 77.1353V50.7669C44 49.731 44.3688 48.8442 45.1065 48.1065C45.8442 47.3688 46.731 47 47.7669 47H74.1353C75.1712 47 76.0579 47.3688 76.7956 48.1065C77.5333 48.8442 77.9022 49.731 77.9022 50.7669V77.1353C77.9022 78.1712 77.5333 79.0579 76.7956 79.7956C76.0579 80.5333 75.1712 80.9022 74.1353 80.9022H47.7669ZM49.6504 73.3683H72.2518L65.1888 63.9511L59.5385 71.4849L55.3007 65.8345L49.6504 73.3683Z" fill="#1D1B20"/>
<path d="M93.7669 80.9022C92.731 80.9022 91.8442 80.5333 91.1065 79.7956C90.3688 79.0579 90 78.1712 90 77.1353V50.7669C90 49.731 90.3688 48.8442 91.1065 48.1065C91.8442 47.3688 92.731 47 93.7669 47H120.135C121.171 47 122.058 47.3688 122.796 48.1065C123.533 48.8442 123.902 49.731 123.902 50.7669V77.1353C123.902 78.1712 123.533 79.0579 122.796 79.7956C122.058 80.5333 121.171 80.9022 120.135 80.9022H93.7669ZM95.6504 73.3683H118.252L111.189 63.9511L105.538 71.4849L101.301 65.8345L95.6504 73.3683Z" fill="#1D1B20"/>
<path d="M138.767 80.9022C137.731 80.9022 136.844 80.5333 136.107 79.7956C135.369 79.0579 135 78.1712 135 77.1353V50.7669C135 49.731 135.369 48.8442 136.107 48.1065C136.844 47.3688 137.731 47 138.767 47H165.135C166.171 47 167.058 47.3688 167.796 48.1065C168.533 48.8442 168.902 49.731 168.902 50.7669V77.1353C168.902 78.1712 168.533 79.0579 167.796 79.7956C167.058 80.5333 166.171 80.9022 165.135 80.9022H138.767ZM140.65 73.3683H163.252L156.189 63.9511L150.538 71.4849L146.301 65.8345L140.65 73.3683Z" fill="#1D1B20"/>
<path d="M3.76691 33.9022C2.73101 33.9022 1.84421 33.5333 1.10653 32.7956C0.368843 32.0579 0 31.1712 0 30.1353V3.76691C0 2.73101 0.368843 1.84421 1.10653 1.10653C1.84421 0.368843 2.73101 0 3.76691 0H30.1353C31.1712 0 32.0579 0.368843 32.7956 1.10653C33.5333 1.84421 33.9022 2.73101 33.9022 3.76691V30.1353C33.9022 31.1712 33.5333 32.0579 32.7956 32.7956C32.0579 33.5333 31.1712 33.9022 30.1353 33.9022H3.76691ZM5.65036 26.3683H28.2518L21.1888 16.9511L15.5385 24.4849L11.3007 18.8345L5.65036 26.3683Z" fill="#1D1B20"/>
<path d="M47.7669 33.9022C46.731 33.9022 45.8442 33.5333 45.1065 32.7956C44.3688 32.0579 44 31.1712 44 30.1353V3.76691C44 2.73101 44.3688 1.84421 45.1065 1.10653C45.8442 0.368843 46.731 0 47.7669 0H74.1353C75.1712 0 76.0579 0.368843 76.7956 1.10653C77.5333 1.84421 77.9022 2.73101 77.9022 3.76691V30.1353C77.9022 31.1712 77.5333 32.0579 76.7956 32.7956C76.0579 33.5333 75.1712 33.9022 74.1353 33.9022H47.7669ZM49.6504 26.3683H72.2518L65.1888 16.9511L59.5385 24.4849L55.3007 18.8345L49.6504 26.3683Z" fill="#1D1B20"/>
<path d="M93.7669 33.9022C92.731 33.9022 91.8442 33.5333 91.1065 32.7956C90.3688 32.0579 90 31.1712 90 30.1353V3.76691C90 2.73101 90.3688 1.84421 91.1065 1.10653C91.8442 0.368843 92.731 0 93.7669 0H120.135C121.171 0 122.058 0.368843 122.796 1.10653C123.533 1.84421 123.902 2.73101 123.902 3.76691V30.1353C123.902 31.1712 123.533 32.0579 122.796 32.7956C122.058 33.5333 121.171 33.9022 120.135 33.9022H93.7669ZM95.6504 26.3683H118.252L111.189 16.9511L105.538 24.4849L101.301 18.8345L95.6504 26.3683Z" fill="#1D1B20"/>
<path d="M138.767 33.9022C137.731 33.9022 136.844 33.5333 136.107 32.7956C135.369 32.0579 135 31.1712 135 30.1353V3.76691C135 2.73101 135.369 1.84421 136.107 1.10653C136.844 0.368843 137.731 0 138.767 0H165.135C166.171 0 167.058 0.368843 167.796 1.10653C168.533 1.84421 168.902 2.73101 168.902 3.76691V30.1353C168.902 31.1712 168.533 32.0579 167.796 32.7956C167.058 33.5333 166.171 33.9022 165.135 33.9022H138.767ZM140.65 26.3683H163.252L156.189 16.9511L150.538 24.4849L146.301 18.8345L140.65 26.3683Z" fill="#1D1B20"/>
</svg>
