<svg width="119" height="21" viewBox="0 0 119 21" fill="none" xmlns="http://www.w3.org/2000/svg">
<path d="M3.92279 20.5833L5.58934 12.9729L0 7.85417L7.38408 7.17708L10.2557 0L13.1273 7.17708L20.5113 7.85417L14.922 12.9729L16.5886 20.5833L10.2557 16.5479L3.92279 20.5833Z" fill="#1D1B20"/>
<path d="M28.5363 20.5833L30.2029 12.9729L24.6135 7.85417L31.9976 7.17708L34.8692 0L37.7408 7.17708L45.1249 7.85417L39.5355 12.9729L41.2021 20.5833L34.8692 16.5479L28.5363 20.5833Z" fill="#1D1B20"/>
<path d="M56.2524 16.0604L59.483 14.0021L62.7135 16.0875L61.8674 12.1875L64.7134 9.5875L60.97 9.23542L59.483 5.55208L57.9959 9.20833L54.2526 9.56042L57.0985 12.1875L56.2524 16.0604ZM53.1501 20.5833L54.8166 12.9729L49.2273 7.85417L56.6114 7.17708L59.483 0L62.3546 7.17708L69.7386 7.85417L64.1493 12.9729L65.8158 20.5833L59.483 16.5479L53.1501 20.5833Z" fill="#1D1B20"/>
<path d="M80.866 16.0604L84.0965 14.0021L87.327 16.0875L86.4809 12.1875L89.3269 9.5875L85.5836 9.23542L84.0965 5.55208L82.6094 9.20833L78.8661 9.56042L81.712 12.1875L80.866 16.0604ZM77.7636 20.5833L79.4302 12.9729L73.8408 7.85417L81.2249 7.17708L84.0965 0L86.9681 7.17708L94.3522 7.85417L88.7628 12.9729L90.4294 20.5833L84.0965 16.5479L77.7636 20.5833Z" fill="#1D1B20"/>
<path d="M105.48 16.0604L108.71 14.0021L111.941 16.0875L111.095 12.1875L113.941 9.5875L110.197 9.23542L108.71 5.55208L107.223 9.20833L103.48 9.56042L106.326 12.1875L105.48 16.0604ZM102.377 20.5833L104.044 12.9729L98.4546 7.85417L105.839 7.17708L108.71 0L111.582 7.17708L118.966 7.85417L113.377 12.9729L115.043 20.5833L108.71 16.5479L102.377 20.5833Z" fill="#1D1B20"/>
</svg>
