<svg width="34" height="29" viewBox="0 0 34 29" fill="none" xmlns="http://www.w3.org/2000/svg">
<path d="M29.4446 3.78342C28.7047 3.05951 27.8263 2.48525 26.8594 2.09346C25.8926 1.70166 24.8563 1.5 23.8097 1.5C22.7631 1.5 21.7268 1.70166 20.76 2.09346C19.7931 2.48525 18.9147 3.05951 18.1748 3.78342L16.6393 5.28509L15.1038 3.78342C13.6094 2.32186 11.5824 1.50076 9.46895 1.50076C7.35545 1.50076 5.32852 2.32186 3.83405 3.78342C2.33958 5.24498 1.5 7.22729 1.5 9.29425C1.5 11.3612 2.33958 13.3435 3.83405 14.8051L16.6393 27.3284L29.4446 14.8051C30.1848 14.0815 30.772 13.2224 31.1726 12.2768C31.5732 11.3313 31.7794 10.3178 31.7794 9.29425C31.7794 8.27073 31.5732 7.25723 31.1726 6.31167C30.772 5.3661 30.1848 4.50699 29.4446 3.78342Z" stroke="#1E1E1E" stroke-width="3" stroke-linecap="round" stroke-linejoin="round"/>
</svg>
