<svg width="9" height="6" viewBox="0 0 9 6" fill="none" xmlns="http://www.w3.org/2000/svg">
<path d="M4.47754 5.30762C4.24316 5.30762 4.02832 5.21159 3.83301 5.01953L0.219727 1.32324C0.148112 1.24837 0.0927734 1.16699 0.0537109 1.0791C0.0179036 0.987956 0 0.890299 0 0.786133C0 0.639648 0.0341797 0.507812 0.102539 0.390625C0.174154 0.270182 0.268555 0.175781 0.385742 0.107422C0.50293 0.0358073 0.633138 0 0.776367 0C0.994466 0 1.18652 0.0830078 1.35254 0.249023L4.67773 3.67188H4.28223L7.59766 0.249023C7.76367 0.0830078 7.9541 0 8.16895 0C8.31217 0 8.44238 0.0358073 8.55957 0.107422C8.67676 0.175781 8.76953 0.270182 8.83789 0.390625C8.90951 0.507812 8.94531 0.639648 8.94531 0.786133C8.94531 0.997721 8.87207 1.17676 8.72559 1.32324L5.11719 5.01953C5.01953 5.11719 4.91862 5.1888 4.81445 5.23438C4.71029 5.27995 4.59798 5.30436 4.47754 5.30762Z" fill="black" fill-opacity="0.85"/>
</svg>
