<svg width="33" height="30" viewBox="0 0 33 30" fill="none" xmlns="http://www.w3.org/2000/svg">
<path d="M23.3792 16.1671L17.4186 28.1672C16.233 28.1672 15.0959 27.7457 14.2576 26.9956C13.4192 26.2454 12.9482 25.228 12.9482 24.1672V18.8338H4.51403C4.08203 18.8382 3.65412 18.7585 3.25997 18.6002C2.86582 18.4419 2.51483 18.2088 2.23134 17.9171C1.94785 17.6254 1.73863 17.2821 1.61818 16.9108C1.49773 16.5396 1.46892 16.1493 1.53375 15.7671L3.59014 3.76715C3.69791 3.13127 4.05889 2.55167 4.60656 2.13514C5.15423 1.71861 5.85169 1.49321 6.57042 1.50048H23.3792M23.3792 16.1671V1.50048M23.3792 16.1671H27.3579C28.2012 16.1805 29.0207 15.9163 29.6608 15.4247C30.3008 14.9331 30.7168 14.2484 30.8299 13.5005V4.16715C30.7168 3.41923 30.3008 2.73448 29.6608 2.24291C29.0207 1.75133 28.2012 1.48714 27.3579 1.50048H23.3792" stroke="#1E1E1E" stroke-width="3" stroke-linecap="round" stroke-linejoin="round"/>
</svg>
