<svg width="33" height="30" viewBox="0 0 33 30" fill="none" xmlns="http://www.w3.org/2000/svg">
<path d="M8.9507 13.5L14.9113 1.5C16.0969 1.5 17.234 1.92143 18.0723 2.67157C18.9107 3.42172 19.3817 4.43913 19.3817 5.5V10.8333H27.8159C28.2479 10.829 28.6758 10.9087 29.0699 11.067C29.4641 11.2252 29.8151 11.4583 30.0986 11.75C30.3821 12.0417 30.5913 12.3851 30.7117 12.7563C30.8322 13.1276 30.861 13.5178 30.7962 13.9L28.7398 25.9C28.632 26.5359 28.271 27.1155 27.7234 27.532C27.1757 27.9485 26.4782 28.1739 25.7595 28.1667H8.9507M8.9507 13.5V28.1667M8.9507 13.5H4.48028C3.68986 13.5 2.93181 13.781 2.3729 14.281C1.81399 14.7811 1.5 15.4594 1.5 16.1667V25.5C1.5 26.2072 1.81399 26.8855 2.3729 27.3856C2.93181 27.8857 3.68986 28.1667 4.48028 28.1667H8.9507" stroke="#1E1E1E" stroke-width="3" stroke-linecap="round" stroke-linejoin="round"/>
</svg>
